<svg xmlns="http://www.w3.org/2000/svg" xmlns:xlink="http://www.w3.org/1999/xlink" width="100" zoomAndPan="magnify" viewBox="0 0 75 37.5" height="50" preserveAspectRatio="xMidYMid meet" version="1.0"><defs><clipPath id="cb1bd8fc54"><path d="M 0.519531 21.414062 L 55.148438 21.414062 L 55.148438 32.15625 L 0.519531 32.15625 Z M 0.519531 21.414062 " clip-rule="nonzero"/></clipPath><clipPath id="e5aa339d9c"><path d="M 5.890625 21.414062 L 49.75 21.414062 C 52.71875 21.414062 55.121094 23.820312 55.121094 26.785156 C 55.121094 29.75 52.71875 32.15625 49.75 32.15625 L 5.890625 32.15625 C 2.925781 32.15625 0.519531 29.75 0.519531 26.785156 C 0.519531 23.820312 2.925781 21.414062 5.890625 21.414062 Z M 5.890625 21.414062 " clip-rule="nonzero"/></clipPath><clipPath id="3c75437dc8"><path d="M 0.519531 0.414062 L 55.148438 0.414062 L 55.148438 11.15625 L 0.519531 11.15625 Z M 0.519531 0.414062 " clip-rule="nonzero"/></clipPath><clipPath id="b1c93c7bf0"><path d="M 5.890625 0.414062 L 49.75 0.414062 C 52.71875 0.414062 55.121094 2.820312 55.121094 5.785156 C 55.121094 8.75 52.71875 11.15625 49.75 11.15625 L 5.890625 11.15625 C 2.925781 11.15625 0.519531 8.75 0.519531 5.785156 C 0.519531 2.820312 2.925781 0.414062 5.890625 0.414062 Z M 5.890625 0.414062 " clip-rule="nonzero"/></clipPath><clipPath id="18bfb83ec9"><rect x="0" width="56" y="0" height="12"/></clipPath><clipPath id="dedf09f172"><path d="M 3.34375 22 L 7 22 L 7 27 L 3.34375 27 Z M 3.34375 22 " clip-rule="nonzero"/></clipPath><clipPath id="c6ea183c26"><path d="M 10 28 L 13 28 L 13 30.960938 L 10 30.960938 Z M 10 28 " clip-rule="nonzero"/></clipPath><clipPath id="eb6bf5d173"><path d="M 13 28 L 15 28 L 15 30.960938 L 13 30.960938 Z M 13 28 " clip-rule="nonzero"/></clipPath><clipPath id="74bce9f904"><path d="M 15 28 L 18 28 L 18 30.960938 L 15 30.960938 Z M 15 28 " clip-rule="nonzero"/></clipPath><clipPath id="24b26ee633"><path d="M 18 28 L 21 28 L 21 30.960938 L 18 30.960938 Z M 18 28 " clip-rule="nonzero"/></clipPath><clipPath id="dc1cd1a695"><path d="M 21 28 L 22 28 L 22 30.960938 L 21 30.960938 Z M 21 28 " clip-rule="nonzero"/></clipPath><clipPath id="6d37155390"><path d="M 22 28 L 25 28 L 25 30.960938 L 22 30.960938 Z M 22 28 " clip-rule="nonzero"/></clipPath><clipPath id="815b19a2b1"><path d="M 24 28 L 27 28 L 27 30.960938 L 24 30.960938 Z M 24 28 " clip-rule="nonzero"/></clipPath><clipPath id="98aca80a31"><path d="M 28 28 L 31 28 L 31 30.960938 L 28 30.960938 Z M 28 28 " clip-rule="nonzero"/></clipPath><clipPath id="4efaf5b185"><path d="M 31 28 L 34 28 L 34 30.960938 L 31 30.960938 Z M 31 28 " clip-rule="nonzero"/></clipPath><clipPath id="681fb5685d"><path d="M 33 28 L 36 28 L 36 30.960938 L 33 30.960938 Z M 33 28 " clip-rule="nonzero"/></clipPath><clipPath id="c0ebea8d66"><path d="M 36 28 L 39 28 L 39 30.960938 L 36 30.960938 Z M 36 28 " clip-rule="nonzero"/></clipPath><clipPath id="0bbe561904"><path d="M 39 28 L 41 28 L 41 30.960938 L 39 30.960938 Z M 39 28 " clip-rule="nonzero"/></clipPath><clipPath id="81ab02e3ef"><path d="M 41 28 L 45 28 L 45 30.960938 L 41 30.960938 Z M 41 28 " clip-rule="nonzero"/></clipPath><clipPath id="fb3f268c50"><path d="M 44 28 L 47 28 L 47 30.960938 L 44 30.960938 Z M 44 28 " clip-rule="nonzero"/></clipPath><clipPath id="928fdf9059"><path d="M 54 1 L 56.320312 1 L 56.320312 3 L 54 3 Z M 54 1 " clip-rule="nonzero"/></clipPath><clipPath id="fb424a97ab"><rect x="0" width="57" y="0" height="33"/></clipPath></defs><g transform="matrix(1, 0, 0, 1, 7, 2)"><g clip-path="url(#fb424a97ab)"><g clip-path="url(#cb1bd8fc54)"><g clip-path="url(#e5aa339d9c)"><g transform="matrix(1, 0, 0, 1, 0.000000000000000888, 21)"><g clip-path="url(#18bfb83ec9)"><g clip-path="url(#3c75437dc8)"><g clip-path="url(#b1c93c7bf0)"><path fill="#ffffff" d="M 0.519531 0.414062 L 55.105469 0.414062 L 55.105469 11.15625 L 0.519531 11.15625 Z M 0.519531 0.414062 " fill-opacity="1" fill-rule="nonzero"/></g></g></g></g></g></g><path fill="#d0d2d3" d="M 4.390625 20.703125 L 10.714844 20.703125 L 19.355469 7.453125 L 27.492188 20.703125 L 46.207031 20.703125 C 46.207031 20.703125 53.238281 20.503906 53.238281 14.441406 C 53.238281 14.441406 53.15625 8.839844 46.992188 8.839844 L 36.335938 8.839844 C 36.335938 8.839844 34.605469 8.839844 34.605469 7.355469 C 34.605469 7.355469 34.644531 5.910156 36.175781 5.910156 L 49.148438 5.910156 L 52.613281 1.09375 L 35.066406 1.09375 C 35.066406 1.09375 29.367188 1.492188 29.367188 7.09375 C 29.367188 7.09375 29.449219 12.535156 35.351562 12.535156 L 46.167969 12.535156 C 46.167969 12.535156 47.898438 12.613281 47.898438 14.019531 C 47.898438 14.019531 48.140625 15.703125 46.085938 15.703125 L 31.300781 15.703125 L 23.0625 2.738281 C 23.0625 2.738281 22.054688 1.09375 19.597656 1.09375 C 19.597656 1.09375 17.222656 0.890625 15.789062 3.160156 Z M 4.390625 20.703125 " fill-opacity="1" fill-rule="nonzero"/><path fill="#ffd300" d="M 14.601562 20.703125 L 24.230469 20.703125 L 19.398438 12.953125 Z M 14.601562 20.703125 " fill-opacity="1" fill-rule="nonzero"/><path fill="#231f20" d="M 4.390625 29.335938 L 10.152344 29.335938 L 10.152344 29.695312 L 4.390625 29.695312 Z M 4.390625 29.335938 " fill-opacity="1" fill-rule="nonzero"/><path fill="#231f20" d="M 47.496094 29.335938 L 53.257812 29.335938 L 53.257812 29.695312 L 47.496094 29.695312 Z M 47.496094 29.335938 " fill-opacity="1" fill-rule="nonzero"/><g clip-path="url(#dedf09f172)"><path fill="#231f20" d="M 4.492188 25.441406 L 4.128906 26.605469 L 3.34375 26.605469 L 4.671875 22.46875 L 5.636719 22.46875 L 6.988281 26.605469 L 6.183594 26.605469 L 5.800781 25.441406 Z M 5.660156 24.859375 L 5.335938 23.835938 C 5.257812 23.574219 5.195312 23.292969 5.136719 23.070312 C 5.074219 23.3125 5.015625 23.59375 4.933594 23.835938 L 4.609375 24.859375 L 5.679688 24.859375 Z M 5.660156 24.859375 " fill-opacity="1" fill-rule="nonzero"/></g><path fill="#231f20" d="M 8.640625 26.605469 L 7.308594 22.46875 L 8.136719 22.46875 L 8.699219 24.335938 C 8.863281 24.859375 9.003906 25.339844 9.101562 25.839844 C 9.222656 25.359375 9.363281 24.859375 9.527344 24.335938 L 10.128906 22.449219 L 10.9375 22.449219 L 9.507812 26.585938 L 8.640625 26.585938 Z M 8.640625 26.605469 " fill-opacity="1" fill-rule="nonzero"/><path fill="#231f20" d="M 12.367188 25.441406 L 12.003906 26.605469 L 11.21875 26.605469 L 12.546875 22.46875 L 13.515625 22.46875 L 14.863281 26.605469 L 14.058594 26.605469 L 13.675781 25.441406 Z M 13.554688 24.859375 L 13.234375 23.835938 C 13.152344 23.574219 13.089844 23.292969 13.03125 23.070312 C 12.972656 23.3125 12.910156 23.59375 12.828125 23.835938 L 12.507812 24.859375 L 13.574219 24.859375 Z M 13.554688 24.859375 " fill-opacity="1" fill-rule="nonzero"/><path fill="#231f20" d="M 15.933594 22.53125 C 16.273438 22.46875 16.699219 22.449219 17.140625 22.449219 C 17.90625 22.449219 18.449219 22.609375 18.832031 22.929688 C 19.234375 23.253906 19.476562 23.753906 19.476562 24.457031 C 19.476562 25.160156 19.214844 25.742188 18.832031 26.101562 C 18.429688 26.484375 17.765625 26.664062 16.960938 26.664062 C 16.152344 26.664062 16.195312 26.644531 15.933594 26.605469 Z M 16.699219 26.023438 C 16.796875 26.023438 16.960938 26.023438 17.121094 26.023438 C 18.105469 26.023438 18.691406 25.480469 18.691406 24.4375 C 18.691406 23.53125 18.167969 23.011719 17.222656 23.011719 C 16.273438 23.011719 16.816406 23.011719 16.699219 23.050781 Z M 16.699219 26.023438 " fill-opacity="1" fill-rule="nonzero"/><path fill="#231f20" d="M 21.371094 22.46875 L 21.371094 24.113281 L 23.121094 24.113281 L 23.121094 22.46875 L 23.886719 22.46875 L 23.886719 26.605469 L 23.121094 26.605469 L 23.121094 24.777344 L 21.371094 24.777344 L 21.371094 26.605469 L 20.605469 26.605469 L 20.605469 22.46875 Z M 21.371094 22.46875 " fill-opacity="1" fill-rule="nonzero"/><path fill="#231f20" d="M 25.984375 22.46875 L 25.984375 24.878906 C 25.984375 25.679688 26.324219 26.0625 26.828125 26.0625 C 27.332031 26.0625 27.695312 25.679688 27.695312 24.878906 L 27.695312 22.46875 L 28.460938 22.46875 L 28.460938 24.816406 C 28.460938 26.082031 27.796875 26.644531 26.808594 26.644531 C 25.820312 26.644531 25.238281 26.101562 25.238281 24.816406 L 25.238281 22.449219 L 26.003906 22.449219 Z M 25.984375 22.46875 " fill-opacity="1" fill-rule="nonzero"/><path fill="#231f20" d="M 30.617188 23.113281 L 29.429688 23.113281 L 29.429688 22.488281 L 32.550781 22.488281 L 32.550781 23.113281 L 31.363281 23.113281 L 31.363281 26.605469 L 30.597656 26.605469 L 30.597656 23.113281 Z M 30.617188 23.113281 " fill-opacity="1" fill-rule="nonzero"/><path fill="#231f20" d="M 35.269531 25.78125 C 35.511719 25.921875 35.894531 26.042969 36.277344 26.042969 C 36.660156 26.042969 37.042969 25.820312 37.042969 25.480469 C 37.042969 25.140625 36.839844 24.976562 36.296875 24.796875 C 35.613281 24.558594 35.167969 24.195312 35.167969 23.59375 C 35.167969 22.992188 35.734375 22.410156 36.640625 22.410156 C 37.546875 22.410156 37.425781 22.507812 37.625 22.609375 L 37.445312 23.210938 C 37.304688 23.132812 37 23.011719 36.617188 23.011719 C 36.238281 23.011719 35.933594 23.273438 35.933594 23.511719 C 35.933594 23.753906 36.175781 23.976562 36.71875 24.195312 C 37.445312 24.457031 37.789062 24.816406 37.789062 25.417969 C 37.789062 26.023438 37.285156 26.664062 36.214844 26.664062 C 35.148438 26.664062 35.328125 26.542969 35.089844 26.402344 L 35.25 25.78125 Z M 35.269531 25.78125 " fill-opacity="1" fill-rule="nonzero"/><path fill="#231f20" d="M 39.800781 25.441406 L 39.4375 26.605469 L 38.652344 26.605469 L 39.984375 22.46875 L 40.949219 22.46875 L 42.300781 26.605469 L 41.492188 26.605469 L 41.109375 25.441406 Z M 40.988281 24.859375 L 40.667969 23.835938 C 40.585938 23.574219 40.527344 23.292969 40.464844 23.070312 C 40.40625 23.3125 40.34375 23.59375 40.265625 23.835938 L 39.941406 24.859375 L 41.011719 24.859375 Z M 40.988281 24.859375 " fill-opacity="1" fill-rule="nonzero"/><path fill="#231f20" d="M 43.648438 23.113281 L 42.460938 23.113281 L 42.460938 22.488281 L 45.582031 22.488281 L 45.582031 23.113281 L 44.394531 23.113281 L 44.394531 26.605469 L 43.628906 26.605469 L 43.628906 23.113281 Z M 43.648438 23.113281 " fill-opacity="1" fill-rule="nonzero"/><path fill="#231f20" d="M 47.335938 22.46875 L 47.335938 24.113281 L 49.085938 24.113281 L 49.085938 22.46875 L 49.851562 22.46875 L 49.851562 26.605469 L 49.085938 26.605469 L 49.085938 24.777344 L 47.335938 24.777344 L 47.335938 26.605469 L 46.570312 26.605469 L 46.570312 22.46875 Z M 47.335938 22.46875 " fill-opacity="1" fill-rule="nonzero"/><path fill="#231f20" d="M 53.519531 24.777344 L 51.96875 24.777344 L 51.96875 26 L 53.722656 26 L 53.722656 26.625 L 51.222656 26.625 L 51.222656 22.488281 L 53.640625 22.488281 L 53.640625 23.113281 L 51.988281 23.113281 L 51.988281 24.175781 L 53.539062 24.175781 L 53.539062 24.796875 Z M 53.519531 24.777344 " fill-opacity="1" fill-rule="nonzero"/><g clip-path="url(#c6ea183c26)"><path fill="#231f20" d="M 11.539062 28.429688 L 10.773438 28.429688 L 10.773438 28.148438 L 12.667969 28.148438 L 12.667969 28.429688 L 11.882812 28.429688 L 11.882812 30.679688 L 11.539062 30.679688 Z M 11.539062 28.429688 " fill-opacity="1" fill-rule="nonzero"/></g><g clip-path="url(#eb6bf5d173)"><path fill="#231f20" d="M 13.234375 28.191406 C 13.394531 28.148438 13.636719 28.128906 13.855469 28.128906 C 14.199219 28.128906 14.441406 28.191406 14.601562 28.332031 C 14.722656 28.449219 14.804688 28.613281 14.804688 28.8125 C 14.804688 29.152344 14.582031 29.375 14.320312 29.453125 C 14.523438 29.535156 14.621094 29.714844 14.703125 29.976562 C 14.785156 30.335938 14.84375 30.578125 14.90625 30.679688 L 14.5625 30.679688 C 14.523438 30.597656 14.460938 30.398438 14.402344 30.078125 C 14.320312 29.734375 14.179688 29.59375 13.898438 29.574219 L 13.59375 29.574219 L 13.59375 30.679688 L 13.273438 30.679688 L 13.273438 28.167969 Z M 13.554688 29.355469 L 13.898438 29.355469 C 14.238281 29.355469 14.460938 29.171875 14.460938 28.871094 C 14.460938 28.570312 14.21875 28.410156 13.878906 28.390625 C 13.714844 28.390625 13.617188 28.390625 13.554688 28.410156 Z M 13.554688 29.355469 " fill-opacity="1" fill-rule="nonzero"/></g><g clip-path="url(#74bce9f904)"><path fill="#231f20" d="M 15.992188 29.894531 L 15.730469 30.699219 L 15.386719 30.699219 L 16.253906 28.167969 L 16.65625 28.167969 L 17.523438 30.699219 L 17.179688 30.699219 L 16.917969 29.894531 Z M 16.816406 29.636719 L 16.578125 28.914062 C 16.515625 28.75 16.476562 28.589844 16.433594 28.449219 C 16.394531 28.589844 16.355469 28.75 16.316406 28.914062 L 16.074219 29.65625 L 16.839844 29.65625 Z M 16.816406 29.636719 " fill-opacity="1" fill-rule="nonzero"/></g><g clip-path="url(#24b26ee633)"><path fill="#231f20" d="M 18.1875 28.191406 C 18.390625 28.167969 18.632812 28.128906 18.894531 28.128906 C 19.355469 28.128906 19.699219 28.230469 19.921875 28.449219 C 20.140625 28.671875 20.28125 28.953125 20.28125 29.355469 C 20.28125 29.753906 20.160156 30.097656 19.921875 30.335938 C 19.679688 30.578125 19.296875 30.699219 18.792969 30.699219 C 18.289062 30.699219 18.371094 30.699219 18.1875 30.679688 Z M 18.511719 30.4375 C 18.589844 30.4375 18.710938 30.457031 18.851562 30.457031 C 19.558594 30.457031 19.941406 30.078125 19.941406 29.394531 C 19.941406 28.792969 19.597656 28.410156 18.914062 28.410156 C 18.226562 28.410156 18.609375 28.410156 18.53125 28.449219 L 18.53125 30.457031 Z M 18.511719 30.4375 " fill-opacity="1" fill-rule="nonzero"/></g><g clip-path="url(#dc1cd1a695)"><path fill="#231f20" d="M 21.007812 28.148438 L 21.332031 28.148438 L 21.332031 30.679688 L 21.007812 30.679688 Z M 21.007812 28.148438 " fill-opacity="1" fill-rule="nonzero"/></g><g clip-path="url(#6d37155390)"><path fill="#231f20" d="M 22.195312 30.699219 L 22.195312 28.167969 L 22.558594 28.167969 L 23.363281 29.453125 C 23.546875 29.753906 23.707031 30.015625 23.828125 30.277344 C 23.808594 29.9375 23.789062 29.636719 23.789062 29.234375 L 23.789062 28.167969 L 24.089844 28.167969 L 24.089844 30.699219 L 23.746094 30.699219 L 22.941406 29.414062 C 22.761719 29.132812 22.597656 28.851562 22.457031 28.570312 C 22.476562 28.890625 22.476562 29.195312 22.476562 29.613281 L 22.476562 30.699219 C 22.476562 30.699219 22.175781 30.699219 22.175781 30.699219 Z M 22.195312 30.699219 " fill-opacity="1" fill-rule="nonzero"/></g><g clip-path="url(#815b19a2b1)"><path fill="#231f20" d="M 26.929688 30.578125 C 26.789062 30.640625 26.488281 30.71875 26.144531 30.71875 C 25.800781 30.71875 25.441406 30.617188 25.199219 30.378906 C 24.976562 30.15625 24.835938 29.835938 24.835938 29.433594 C 24.835938 28.671875 25.359375 28.128906 26.203125 28.128906 C 27.050781 28.128906 26.730469 28.191406 26.828125 28.25 L 26.75 28.511719 C 26.609375 28.449219 26.445312 28.410156 26.183594 28.410156 C 25.558594 28.410156 25.15625 28.792969 25.15625 29.433594 C 25.15625 30.078125 25.539062 30.457031 26.144531 30.457031 C 26.75 30.457031 26.507812 30.4375 26.585938 30.398438 L 26.585938 29.636719 L 26.0625 29.636719 L 26.0625 29.375 L 26.910156 29.375 L 26.910156 30.597656 Z M 26.929688 30.578125 " fill-opacity="1" fill-rule="nonzero"/></g><g clip-path="url(#98aca80a31)"><path fill="#231f20" d="M 29.246094 29.894531 L 28.984375 30.699219 L 28.640625 30.699219 L 29.507812 28.167969 L 29.910156 28.167969 L 30.777344 30.699219 L 30.433594 30.699219 L 30.171875 29.894531 Z M 30.074219 29.636719 L 29.832031 28.914062 C 29.769531 28.75 29.730469 28.589844 29.691406 28.449219 C 29.648438 28.589844 29.609375 28.75 29.570312 28.914062 L 29.328125 29.65625 L 30.09375 29.65625 Z M 30.074219 29.636719 " fill-opacity="1" fill-rule="nonzero"/></g><g clip-path="url(#4efaf5b185)"><path fill="#231f20" d="M 33.175781 30.617188 C 33.054688 30.679688 32.8125 30.738281 32.511719 30.738281 C 31.785156 30.738281 31.261719 30.277344 31.261719 29.453125 C 31.261719 28.632812 31.804688 28.128906 32.589844 28.128906 C 33.375 28.128906 33.113281 28.191406 33.195312 28.25 L 33.113281 28.511719 C 32.992188 28.449219 32.8125 28.410156 32.609375 28.410156 C 32.007812 28.410156 31.625 28.792969 31.625 29.453125 C 31.625 30.117188 31.984375 30.476562 32.609375 30.476562 C 33.234375 30.476562 33.011719 30.4375 33.15625 30.378906 L 33.214844 30.640625 Z M 33.175781 30.617188 " fill-opacity="1" fill-rule="nonzero"/></g><g clip-path="url(#681fb5685d)"><path fill="#231f20" d="M 34.300781 29.894531 L 34.039062 30.699219 L 33.699219 30.699219 L 34.5625 28.167969 L 34.96875 28.167969 L 35.832031 30.699219 L 35.492188 30.699219 L 35.230469 29.894531 Z M 35.128906 29.636719 L 34.886719 28.914062 C 34.828125 28.75 34.785156 28.589844 34.746094 28.449219 C 34.707031 28.589844 34.664062 28.75 34.625 28.914062 L 34.382812 29.65625 L 35.148438 29.65625 Z M 35.128906 29.636719 " fill-opacity="1" fill-rule="nonzero"/></g><g clip-path="url(#c0ebea8d66)"><path fill="#231f20" d="M 36.5 28.191406 C 36.699219 28.167969 36.941406 28.128906 37.203125 28.128906 C 37.667969 28.128906 38.007812 28.230469 38.230469 28.449219 C 38.453125 28.671875 38.59375 28.953125 38.59375 29.355469 C 38.59375 29.753906 38.472656 30.097656 38.230469 30.335938 C 37.988281 30.578125 37.605469 30.699219 37.101562 30.699219 C 36.597656 30.699219 36.679688 30.699219 36.5 30.679688 Z M 36.839844 30.4375 C 36.921875 30.4375 37.042969 30.457031 37.183594 30.457031 C 37.886719 30.457031 38.269531 30.078125 38.269531 29.394531 C 38.269531 28.792969 37.929688 28.410156 37.242188 28.410156 C 36.558594 28.410156 36.941406 28.410156 36.859375 28.449219 L 36.859375 30.457031 Z M 36.839844 30.4375 " fill-opacity="1" fill-rule="nonzero"/></g><g clip-path="url(#0bbe561904)"><path fill="#231f20" d="M 40.628906 29.496094 L 39.640625 29.496094 L 39.640625 30.398438 L 40.75 30.398438 L 40.75 30.679688 L 39.316406 30.679688 L 39.316406 28.148438 L 40.6875 28.148438 L 40.6875 28.429688 L 39.640625 28.429688 L 39.640625 29.234375 L 40.628906 29.234375 L 40.628906 29.515625 Z M 40.628906 29.496094 " fill-opacity="1" fill-rule="nonzero"/></g><g clip-path="url(#81ab02e3ef)"><path fill="#231f20" d="M 43.628906 29.574219 C 43.609375 29.214844 43.589844 28.792969 43.589844 28.472656 C 43.507812 28.773438 43.40625 29.09375 43.265625 29.433594 L 42.824219 30.660156 L 42.582031 30.660156 L 42.179688 29.453125 C 42.058594 29.09375 41.957031 28.773438 41.875 28.472656 C 41.875 28.792969 41.855469 29.214844 41.835938 29.59375 L 41.777344 30.679688 L 41.472656 30.679688 L 41.65625 28.148438 L 42.078125 28.148438 L 42.5 29.375 C 42.601562 29.675781 42.683594 29.957031 42.761719 30.238281 C 42.824219 29.976562 42.925781 29.695312 43.023438 29.375 L 43.488281 28.148438 L 43.910156 28.148438 L 44.070312 30.679688 L 43.75 30.679688 L 43.6875 29.574219 Z M 43.628906 29.574219 " fill-opacity="1" fill-rule="nonzero"/></g><g clip-path="url(#fb3f268c50)"><path fill="#231f20" d="M 45.382812 30.699219 L 45.382812 29.636719 L 44.574219 28.167969 L 44.957031 28.167969 L 45.320312 28.871094 C 45.421875 29.054688 45.503906 29.214844 45.582031 29.394531 C 45.664062 29.234375 45.742188 29.054688 45.84375 28.871094 L 46.207031 28.167969 L 46.589844 28.167969 L 45.742188 29.613281 L 45.742188 30.699219 Z M 45.382812 30.699219 " fill-opacity="1" fill-rule="nonzero"/></g><path fill="#231f20" d="M 54.042969 1.234375 L 53.601562 1.234375 L 53.601562 1.070312 L 54.667969 1.070312 L 54.667969 1.234375 L 54.222656 1.234375 L 54.222656 2.515625 L 54.042969 2.515625 Z M 54.042969 1.234375 " fill-opacity="1" fill-rule="nonzero"/><g clip-path="url(#928fdf9059)"><path fill="#231f20" d="M 56.097656 1.894531 C 56.097656 1.695312 56.078125 1.453125 56.078125 1.273438 C 56.039062 1.433594 55.976562 1.613281 55.894531 1.816406 L 55.632812 2.515625 L 55.492188 2.515625 L 55.25 1.835938 C 55.191406 1.632812 55.128906 1.453125 55.089844 1.273438 C 55.089844 1.453125 55.089844 1.695312 55.070312 1.914062 L 55.03125 2.539062 L 54.847656 2.539062 L 54.949219 1.09375 L 55.191406 1.09375 L 55.433594 1.792969 C 55.492188 1.976562 55.535156 2.136719 55.574219 2.277344 C 55.613281 2.136719 55.65625 1.976562 55.734375 1.792969 L 55.996094 1.09375 L 56.238281 1.09375 L 56.320312 2.539062 L 56.136719 2.539062 L 56.097656 1.914062 Z M 56.097656 1.894531 " fill-opacity="1" fill-rule="nonzero"/></g></g></g></svg>