<svg xmlns="http://www.w3.org/2000/svg" xmlns:xlink="http://www.w3.org/1999/xlink" width="100" zoomAndPan="magnify" viewBox="0 0 75 37.5" height="50" preserveAspectRatio="xMidYMid meet" version="1.0"><defs><clipPath id="ba21b56011"><path d="M 4.195312 10.355469 L 72.292969 10.355469 L 72.292969 26.648438 L 4.195312 26.648438 Z M 4.195312 10.355469 " clip-rule="nonzero"/></clipPath><clipPath id="c8b2be8053"><path d="M 5.675781 10.355469 L 70.804688 10.355469 C 71.621094 10.355469 72.285156 11.019531 72.285156 11.835938 L 72.285156 25.167969 C 72.285156 25.988281 71.621094 26.648438 70.804688 26.648438 L 5.675781 26.648438 C 4.855469 26.648438 4.195312 25.988281 4.195312 25.167969 L 4.195312 11.835938 C 4.195312 11.019531 4.855469 10.355469 5.675781 10.355469 Z M 5.675781 10.355469 " clip-rule="nonzero"/></clipPath><clipPath id="c012f2919d"><path d="M 0.195312 0.355469 L 68.292969 0.355469 L 68.292969 16.648438 L 0.195312 16.648438 Z M 0.195312 0.355469 " clip-rule="nonzero"/></clipPath><clipPath id="e179510c98"><path d="M 1.675781 0.355469 L 66.804688 0.355469 C 67.621094 0.355469 68.285156 1.019531 68.285156 1.835938 L 68.285156 15.167969 C 68.285156 15.988281 67.621094 16.648438 66.804688 16.648438 L 1.675781 16.648438 C 0.855469 16.648438 0.195312 15.988281 0.195312 15.167969 L 0.195312 1.835938 C 0.195312 1.019531 0.855469 0.355469 1.675781 0.355469 Z M 1.675781 0.355469 " clip-rule="nonzero"/></clipPath><clipPath id="c643fa4e89"><rect x="0" width="69" y="0" height="17"/></clipPath><clipPath id="2e9bc7666d"><path d="M 7.453125 12.15625 L 19 12.15625 L 19 26.21875 L 7.453125 26.21875 Z M 7.453125 12.15625 " clip-rule="nonzero"/></clipPath></defs><g clip-path="url(#ba21b56011)"><g clip-path="url(#c8b2be8053)"><g transform="matrix(1, 0, 0, 1, 4, 10)"><g clip-path="url(#c643fa4e89)"><g clip-path="url(#c012f2919d)"><g clip-path="url(#e179510c98)"><path fill="#ffffff" d="M 0.195312 0.355469 L 68.292969 0.355469 L 68.292969 16.648438 L 0.195312 16.648438 Z M 0.195312 0.355469 " fill-opacity="1" fill-rule="nonzero"/></g></g></g></g></g></g><path fill="#494949" d="M 25.9375 22.449219 C 25.402344 22.449219 24.929688 22.296875 24.523438 22 C 24.117188 21.703125 23.796875 21.304688 23.570312 20.808594 C 23.339844 20.304688 23.222656 19.753906 23.222656 19.15625 C 23.222656 18.527344 23.34375 17.960938 23.582031 17.457031 C 23.816406 16.945312 24.148438 16.539062 24.570312 16.242188 C 24.992188 15.941406 25.480469 15.792969 26.03125 15.792969 C 26.5 15.792969 26.910156 15.910156 27.261719 16.140625 C 27.613281 16.363281 27.90625 16.667969 28.136719 17.046875 L 28.136719 15.90625 L 29.484375 15.90625 L 29.484375 22.101562 C 29.484375 22.746094 29.335938 23.296875 29.046875 23.75 C 28.761719 24.214844 28.367188 24.566406 27.859375 24.804688 C 27.355469 25.054688 26.777344 25.179688 26.132812 25.179688 C 25.476562 25.179688 24.917969 25.058594 24.464844 24.820312 C 24.019531 24.585938 23.636719 24.257812 23.316406 23.824219 L 24.15625 22.945312 C 24.386719 23.25 24.671875 23.492188 25.019531 23.664062 C 25.371094 23.839844 25.742188 23.925781 26.132812 23.925781 C 26.457031 23.925781 26.75 23.859375 27.019531 23.726562 C 27.296875 23.601562 27.519531 23.402344 27.6875 23.128906 C 27.855469 22.867188 27.941406 22.523438 27.941406 22.101562 L 27.941406 21.28125 C 27.742188 21.652344 27.457031 21.941406 27.089844 22.148438 C 26.730469 22.347656 26.34375 22.449219 25.9375 22.449219 Z M 26.457031 21.121094 C 26.792969 21.121094 27.097656 21.011719 27.367188 20.796875 C 27.640625 20.582031 27.832031 20.324219 27.941406 20.027344 L 27.941406 18.476562 C 27.804688 18.09375 27.585938 17.789062 27.285156 17.554688 C 26.992188 17.324219 26.6875 17.210938 26.363281 17.210938 C 26.050781 17.210938 25.773438 17.304688 25.535156 17.496094 C 25.304688 17.683594 25.125 17.933594 24.996094 18.238281 C 24.863281 18.539062 24.800781 18.859375 24.800781 19.207031 C 24.800781 19.5625 24.871094 19.886719 25.019531 20.175781 C 25.164062 20.464844 25.359375 20.699219 25.605469 20.871094 C 25.859375 21.035156 26.140625 21.121094 26.457031 21.121094 Z M 26.457031 21.121094 " fill-opacity="1" fill-rule="nonzero"/><path fill="#494949" d="M 30.457031 20.488281 C 30.457031 20.0625 30.566406 19.695312 30.78125 19.382812 C 31.003906 19.058594 31.308594 18.808594 31.699219 18.636719 C 32.09375 18.460938 32.542969 18.375 33.046875 18.375 C 33.300781 18.375 33.558594 18.402344 33.816406 18.449219 C 34.078125 18.492188 34.304688 18.554688 34.496094 18.636719 L 34.496094 18.289062 C 34.496094 17.875 34.382812 17.554688 34.152344 17.332031 C 33.929688 17.109375 33.59375 16.996094 33.152344 16.996094 C 32.820312 16.996094 32.507812 17.058594 32.207031 17.183594 C 31.90625 17.308594 31.59375 17.492188 31.265625 17.730469 L 30.769531 16.636719 C 31.167969 16.355469 31.574219 16.144531 31.988281 16.003906 C 32.410156 15.863281 32.851562 15.792969 33.3125 15.792969 C 34.171875 15.792969 34.839844 16.027344 35.3125 16.488281 C 35.796875 16.953125 36.039062 17.613281 36.039062 18.476562 L 36.039062 20.546875 C 36.039062 20.730469 36.066406 20.859375 36.121094 20.933594 C 36.171875 21 36.269531 21.039062 36.40625 21.058594 L 36.40625 22.410156 C 36.269531 22.445312 36.140625 22.464844 36.027344 22.472656 C 35.921875 22.488281 35.828125 22.496094 35.75 22.496094 C 35.445312 22.496094 35.210938 22.421875 35.050781 22.273438 C 34.886719 22.125 34.792969 21.941406 34.761719 21.726562 L 34.726562 21.394531 C 34.457031 21.765625 34.128906 22.050781 33.738281 22.25 C 33.355469 22.441406 32.960938 22.535156 32.550781 22.535156 C 32.144531 22.535156 31.785156 22.449219 31.472656 22.273438 C 31.15625 22.09375 30.90625 21.847656 30.722656 21.542969 C 30.546875 21.226562 30.457031 20.875 30.457031 20.488281 Z M 34.210938 20.820312 C 34.402344 20.621094 34.496094 20.433594 34.496094 20.25 L 34.496094 19.59375 C 34.097656 19.417969 33.695312 19.332031 33.289062 19.332031 C 32.882812 19.332031 32.550781 19.425781 32.300781 19.617188 C 32.046875 19.800781 31.917969 20.042969 31.917969 20.351562 C 31.917969 20.597656 32.011719 20.820312 32.195312 21.019531 C 32.378906 21.21875 32.644531 21.316406 32.988281 21.316406 C 33.21875 21.316406 33.441406 21.273438 33.65625 21.179688 C 33.878906 21.089844 34.0625 20.96875 34.210938 20.820312 Z M 34.210938 20.820312 " fill-opacity="1" fill-rule="nonzero"/><path fill="#494949" d="M 37.46875 13.347656 L 39.011719 13.347656 L 39.011719 20.324219 C 39.011719 20.632812 39.054688 20.835938 39.148438 20.933594 C 39.238281 21.03125 39.367188 21.082031 39.527344 21.082031 C 39.652344 21.082031 39.777344 21.066406 39.90625 21.03125 C 40.039062 21 40.152344 20.957031 40.253906 20.910156 L 40.460938 22.175781 C 40.253906 22.28125 40.011719 22.363281 39.734375 22.421875 C 39.457031 22.480469 39.210938 22.511719 38.988281 22.511719 C 38.503906 22.511719 38.128906 22.375 37.859375 22.101562 C 37.597656 21.820312 37.46875 21.421875 37.46875 20.910156 Z M 37.46875 13.347656 " fill-opacity="1" fill-rule="nonzero"/><path fill="#494949" d="M 41.121094 13.347656 L 42.660156 13.347656 L 42.660156 20.324219 C 42.660156 20.632812 42.707031 20.835938 42.800781 20.933594 C 42.890625 21.03125 43.019531 21.082031 43.179688 21.082031 C 43.300781 21.082031 43.429688 21.066406 43.558594 21.03125 C 43.691406 21 43.804688 20.957031 43.90625 20.910156 L 44.113281 22.175781 C 43.90625 22.28125 43.664062 22.363281 43.386719 22.421875 C 43.109375 22.480469 42.859375 22.511719 42.640625 22.511719 C 42.15625 22.511719 41.78125 22.375 41.511719 22.101562 C 41.25 21.820312 41.121094 21.421875 41.121094 20.910156 Z M 41.121094 13.347656 " fill-opacity="1" fill-rule="nonzero"/><path fill="#494949" d="M 44.371094 20.488281 C 44.371094 20.0625 44.476562 19.695312 44.691406 19.382812 C 44.914062 19.058594 45.21875 18.808594 45.613281 18.636719 C 46.003906 18.460938 46.453125 18.375 46.957031 18.375 C 47.210938 18.375 47.46875 18.402344 47.730469 18.449219 C 47.988281 18.492188 48.214844 18.554688 48.40625 18.636719 L 48.40625 18.289062 C 48.40625 17.875 48.292969 17.554688 48.0625 17.332031 C 47.839844 17.109375 47.507812 16.996094 47.0625 16.996094 C 46.730469 16.996094 46.417969 17.058594 46.117188 17.183594 C 45.820312 17.308594 45.503906 17.492188 45.175781 17.730469 L 44.679688 16.636719 C 45.078125 16.355469 45.484375 16.144531 45.898438 16.003906 C 46.320312 15.863281 46.761719 15.792969 47.222656 15.792969 C 48.082031 15.792969 48.75 16.027344 49.226562 16.488281 C 49.707031 16.953125 49.949219 17.613281 49.949219 18.476562 L 49.949219 20.546875 C 49.949219 20.730469 49.976562 20.859375 50.03125 20.933594 C 50.085938 21 50.179688 21.039062 50.316406 21.058594 L 50.316406 22.410156 C 50.179688 22.445312 50.054688 22.464844 49.9375 22.472656 C 49.832031 22.488281 49.738281 22.496094 49.660156 22.496094 C 49.355469 22.496094 49.121094 22.421875 48.960938 22.273438 C 48.800781 22.125 48.703125 21.941406 48.671875 21.726562 L 48.636719 21.394531 C 48.371094 21.765625 48.039062 22.050781 47.648438 22.25 C 47.265625 22.441406 46.871094 22.535156 46.464844 22.535156 C 46.058594 22.535156 45.695312 22.449219 45.382812 22.273438 C 45.066406 22.09375 44.816406 21.847656 44.632812 21.542969 C 44.457031 21.226562 44.371094 20.875 44.371094 20.488281 Z M 48.121094 20.820312 C 48.3125 20.621094 48.40625 20.433594 48.40625 20.25 L 48.40625 19.59375 C 48.007812 19.417969 47.605469 19.332031 47.199219 19.332031 C 46.792969 19.332031 46.464844 19.425781 46.210938 19.617188 C 45.957031 19.800781 45.832031 20.042969 45.832031 20.351562 C 45.832031 20.597656 45.921875 20.820312 46.105469 21.019531 C 46.289062 21.21875 46.554688 21.316406 46.902344 21.316406 C 47.128906 21.316406 47.351562 21.273438 47.566406 21.179688 C 47.789062 21.089844 47.972656 20.96875 48.121094 20.820312 Z M 48.121094 20.820312 " fill-opacity="1" fill-rule="nonzero"/><path fill="#494949" d="M 54.820312 22.535156 C 54.359375 22.535156 53.949219 22.421875 53.589844 22.199219 C 53.226562 21.976562 52.945312 21.667969 52.738281 21.28125 L 52.738281 22.410156 L 51.390625 22.410156 L 51.390625 13.347656 L 52.933594 13.347656 L 52.933594 17.046875 C 53.148438 16.660156 53.425781 16.351562 53.773438 16.128906 C 54.125 15.90625 54.535156 15.792969 55.003906 15.792969 C 55.527344 15.792969 55.980469 15.953125 56.375 16.265625 C 56.773438 16.570312 57.082031 16.980469 57.304688 17.496094 C 57.527344 18.007812 57.636719 18.570312 57.636719 19.183594 C 57.636719 19.8125 57.515625 20.378906 57.269531 20.882812 C 57.023438 21.386719 56.6875 21.789062 56.257812 22.085938 C 55.835938 22.386719 55.355469 22.535156 54.820312 22.535156 Z M 54.394531 21.121094 C 54.722656 21.121094 55.011719 21.03125 55.257812 20.859375 C 55.511719 20.683594 55.707031 20.453125 55.84375 20.164062 C 55.988281 19.867188 56.0625 19.542969 56.0625 19.195312 C 56.0625 18.839844 55.992188 18.511719 55.855469 18.214844 C 55.726562 17.910156 55.539062 17.664062 55.304688 17.480469 C 55.066406 17.300781 54.792969 17.210938 54.484375 17.210938 C 54.148438 17.210938 53.839844 17.332031 53.554688 17.582031 C 53.277344 17.820312 53.070312 18.121094 52.933594 18.476562 L 52.933594 20.027344 C 53.03125 20.351562 53.226562 20.613281 53.519531 20.820312 C 53.8125 21.019531 54.101562 21.121094 54.394531 21.121094 Z M 54.394531 21.121094 " fill-opacity="1" fill-rule="nonzero"/><path fill="#494949" d="M 61.46875 22.535156 C 60.808594 22.535156 60.242188 22.382812 59.765625 22.074219 C 59.296875 21.761719 58.9375 21.347656 58.683594 20.832031 C 58.429688 20.320312 58.304688 19.765625 58.304688 19.171875 C 58.304688 18.566406 58.429688 18.007812 58.683594 17.496094 C 58.945312 16.980469 59.308594 16.570312 59.777344 16.265625 C 60.25 15.949219 60.816406 15.792969 61.46875 15.792969 C 62.121094 15.792969 62.679688 15.949219 63.148438 16.265625 C 63.625 16.570312 63.988281 16.980469 64.242188 17.496094 C 64.492188 18.007812 64.621094 18.566406 64.621094 19.171875 C 64.621094 19.765625 64.492188 20.320312 64.242188 20.832031 C 63.988281 21.347656 63.625 21.761719 63.148438 22.074219 C 62.679688 22.382812 62.121094 22.535156 61.46875 22.535156 Z M 59.890625 19.171875 C 59.890625 19.550781 59.960938 19.890625 60.097656 20.1875 C 60.238281 20.476562 60.425781 20.707031 60.664062 20.871094 C 60.898438 21.035156 61.167969 21.121094 61.46875 21.121094 C 61.757812 21.121094 62.023438 21.035156 62.261719 20.871094 C 62.5 20.699219 62.6875 20.464844 62.824219 20.175781 C 62.972656 19.878906 63.042969 19.539062 63.042969 19.15625 C 63.042969 18.785156 62.972656 18.453125 62.824219 18.164062 C 62.6875 17.867188 62.5 17.636719 62.261719 17.46875 C 62.023438 17.296875 61.757812 17.210938 61.46875 17.210938 C 61.167969 17.210938 60.898438 17.296875 60.664062 17.46875 C 60.425781 17.636719 60.238281 17.867188 60.097656 18.164062 C 59.960938 18.453125 59.890625 18.789062 59.890625 19.171875 Z M 59.890625 19.171875 " fill-opacity="1" fill-rule="nonzero"/><path fill="#494949" d="M 66.371094 15.90625 L 67.636719 17.941406 L 67.726562 18.164062 L 67.84375 17.941406 L 69.097656 15.90625 L 70.71875 15.90625 L 68.625 19.144531 L 70.753906 22.410156 L 69.132812 22.410156 L 67.832031 20.386719 L 67.726562 20.175781 L 67.636719 20.386719 L 66.347656 22.410156 L 64.722656 22.410156 L 66.851562 19.183594 L 64.757812 15.90625 Z M 66.371094 15.90625 " fill-opacity="1" fill-rule="nonzero"/><g clip-path="url(#2e9bc7666d)"><path fill="#3364fa" d="M 18.082031 15.113281 L 14.035156 12.566406 C 13.777344 12.40625 13.488281 12.320312 13.191406 12.320312 C 12.898438 12.320312 12.605469 12.40625 12.351562 12.566406 L 8.300781 15.113281 C 8.046875 15.273438 7.832031 15.503906 7.683594 15.785156 C 7.539062 16.0625 7.460938 16.378906 7.460938 16.703125 L 7.460938 21.796875 C 7.460938 22.117188 7.539062 22.433594 7.683594 22.710938 C 7.832031 22.992188 8.046875 23.222656 8.300781 23.382812 L 12.351562 25.933594 C 12.605469 26.09375 12.898438 26.175781 13.191406 26.175781 C 13.488281 26.175781 13.777344 26.09375 14.035156 25.933594 L 18.082031 23.386719 C 18.339844 23.222656 18.550781 22.992188 18.699219 22.714844 C 18.847656 22.433594 18.925781 22.117188 18.925781 21.796875 L 18.925781 16.703125 C 18.925781 16.378906 18.847656 16.0625 18.699219 15.785156 C 18.550781 15.503906 18.339844 15.273438 18.082031 15.113281 Z M 18.078125 21.796875 C 18.078125 21.957031 18.039062 22.113281 17.964844 22.25 C 17.890625 22.390625 17.785156 22.503906 17.660156 22.585938 L 13.617188 25.128906 L 13.617188 19.917969 C 13.613281 19.632812 13.542969 19.351562 13.414062 19.105469 C 13.28125 18.859375 13.089844 18.65625 12.863281 18.515625 L 8.683594 15.9375 L 8.726562 15.910156 L 12.773438 13.363281 C 12.902344 13.285156 13.046875 13.242188 13.191406 13.242188 C 13.339844 13.242188 13.484375 13.285156 13.609375 13.363281 L 17.660156 15.910156 C 17.785156 15.992188 17.890625 16.105469 17.964844 16.246094 C 18.039062 16.382812 18.078125 16.542969 18.078125 16.703125 Z M 18.078125 21.796875 " fill-opacity="1" fill-rule="nonzero"/></g></svg>