<svg width="169" height="52" viewBox="0 0 169 52" fill="none" xmlns="http://www.w3.org/2000/svg">
<rect y="0.0673828" width="168.609" height="51.6149" rx="25.8075" fill="#0379E6"/>
<path d="M145.922 30.3484V21.9248H147.284V30.3484H145.922ZM144.497 25.6411V24.4023H148.709V25.6411H144.497Z" fill="white"/>
<path d="M142.341 30.3482V26.9169C142.341 26.5205 142.213 26.1943 141.957 25.9383C141.709 25.6822 141.387 25.5542 140.99 25.5542C140.726 25.5542 140.491 25.612 140.284 25.7277C140.078 25.8433 139.917 26.0043 139.801 26.2108C139.686 26.4172 139.628 26.6526 139.628 26.9169L139.095 26.6196C139.095 26.1654 139.194 25.7648 139.392 25.418C139.591 25.0629 139.863 24.7862 140.21 24.588C140.565 24.3815 140.962 24.2783 141.399 24.2783C141.845 24.2783 142.242 24.3939 142.588 24.6252C142.935 24.8481 143.208 25.1413 143.406 25.5047C143.604 25.8598 143.703 26.2314 143.703 26.6196V30.3482H142.341ZM138.265 30.3482V24.4022H139.628V30.3482H138.265Z" fill="white"/>
<path d="M133.572 30.4721C133.035 30.4721 132.548 30.3358 132.11 30.0633C131.681 29.7908 131.338 29.4233 131.082 28.9608C130.834 28.4901 130.71 27.9657 130.71 27.3876C130.71 26.8013 130.834 26.2768 131.082 25.8144C131.338 25.3437 131.681 24.972 132.11 24.6995C132.548 24.4187 133.035 24.2783 133.572 24.2783C134.026 24.2783 134.427 24.3774 134.774 24.5756C135.129 24.7656 135.409 25.0298 135.616 25.3684C135.822 25.707 135.926 26.091 135.926 26.5205V28.23C135.926 28.6594 135.822 29.0434 135.616 29.382C135.418 29.7206 135.141 29.989 134.786 30.1872C134.431 30.3771 134.026 30.4721 133.572 30.4721ZM133.795 29.1838C134.299 29.1838 134.703 29.0145 135.009 28.6759C135.323 28.3373 135.48 27.9038 135.48 27.3752C135.48 27.0201 135.409 26.7063 135.269 26.4338C135.129 26.1612 134.93 25.9506 134.674 25.802C134.427 25.6451 134.134 25.5666 133.795 25.5666C133.465 25.5666 133.171 25.6451 132.915 25.802C132.668 25.9506 132.469 26.1612 132.321 26.4338C132.18 26.7063 132.11 27.0201 132.11 27.3752C132.11 27.7303 132.18 28.0441 132.321 28.3167C132.469 28.5892 132.668 28.8039 132.915 28.9608C133.171 29.1095 133.465 29.1838 133.795 29.1838ZM135.393 30.3482V28.7502L135.628 27.3009L135.393 25.8639V24.4022H136.756V30.3482H135.393Z" fill="white"/>
<path d="M128.189 30.3481V24.402H129.552V30.3481H128.189ZM128.871 23.3119C128.639 23.3119 128.445 23.2335 128.288 23.0766C128.14 22.9196 128.065 22.7256 128.065 22.4943C128.065 22.2631 128.14 22.069 128.288 21.9121C128.445 21.7552 128.639 21.6768 128.871 21.6768C129.11 21.6768 129.304 21.7552 129.453 21.9121C129.601 22.069 129.676 22.2631 129.676 22.4943C129.676 22.7256 129.601 22.9196 129.453 23.0766C129.304 23.2335 129.11 23.3119 128.871 23.3119Z" fill="white"/>
<path d="M125.297 30.3483V21.4292H126.66V30.3483H125.297Z" fill="white"/>
<path d="M121.295 30.4721C120.841 30.4721 120.437 30.3771 120.081 30.1872C119.726 29.989 119.446 29.7206 119.239 29.382C119.041 29.0434 118.942 28.6594 118.942 28.23V26.5205C118.942 26.091 119.045 25.707 119.251 25.3684C119.458 25.0298 119.739 24.7656 120.094 24.5756C120.449 24.3774 120.849 24.2783 121.295 24.2783C121.832 24.2783 122.315 24.4187 122.745 24.6995C123.182 24.972 123.525 25.3437 123.773 25.8144C124.029 26.2768 124.157 26.8013 124.157 27.3876C124.157 27.9657 124.029 28.4901 123.773 28.9608C123.525 29.4233 123.182 29.7908 122.745 30.0633C122.315 30.3358 121.832 30.4721 121.295 30.4721ZM121.072 29.1838C121.403 29.1838 121.692 29.1095 121.94 28.9608C122.196 28.8039 122.394 28.5892 122.534 28.3167C122.683 28.0441 122.757 27.7303 122.757 27.3752C122.757 27.0201 122.683 26.7063 122.534 26.4338C122.394 26.1612 122.196 25.9506 121.94 25.802C121.692 25.6451 121.403 25.5666 121.072 25.5666C120.742 25.5666 120.449 25.6451 120.193 25.802C119.937 25.9506 119.739 26.1612 119.598 26.4338C119.458 26.7063 119.388 27.0201 119.388 27.3752C119.388 27.7303 119.458 28.0441 119.598 28.3167C119.739 28.5892 119.937 28.8039 120.193 28.9608C120.449 29.1095 120.742 29.1838 121.072 29.1838ZM118.112 32.8258V24.4022H119.474V26.0002L119.239 27.4495L119.474 28.8865V32.8258H118.112Z" fill="white"/>
<path d="M107.443 30.3482V24.4022H108.806V30.3482H107.443ZM111.395 30.3482V26.8054C111.395 26.409 111.271 26.1034 111.023 25.8887C110.775 25.6657 110.47 25.5542 110.106 25.5542C109.858 25.5542 109.635 25.6038 109.437 25.7029C109.247 25.802 109.095 25.9465 108.979 26.1365C108.863 26.3181 108.806 26.5411 108.806 26.8054L108.273 26.5081C108.273 26.0539 108.372 25.6616 108.57 25.3313C108.768 25.0009 109.037 24.7449 109.375 24.5632C109.714 24.3733 110.094 24.2783 110.515 24.2783C110.936 24.2783 111.316 24.3692 111.655 24.5508C111.993 24.7325 112.262 24.9885 112.46 25.3189C112.658 25.6492 112.757 26.0456 112.757 26.5081V30.3482H111.395ZM115.346 30.3482V26.8054C115.346 26.409 115.222 26.1034 114.975 25.8887C114.727 25.6657 114.421 25.5542 114.058 25.5542C113.818 25.5542 113.6 25.6038 113.401 25.7029C113.203 25.802 113.046 25.9465 112.931 26.1365C112.815 26.3181 112.757 26.5411 112.757 26.8054L111.989 26.5081C112.03 26.0539 112.163 25.6616 112.386 25.3313C112.608 25.0009 112.893 24.7449 113.24 24.5632C113.595 24.3733 113.984 24.2783 114.405 24.2783C114.834 24.2783 115.222 24.3692 115.569 24.5508C115.916 24.7325 116.193 24.9885 116.399 25.3189C116.606 25.6492 116.709 26.0456 116.709 26.5081V30.3482H115.346Z" fill="white"/>
<path d="M103.188 30.4721C102.61 30.4721 102.086 30.3358 101.615 30.0633C101.144 29.7825 100.769 29.4068 100.488 28.936C100.215 28.4653 100.079 27.9409 100.079 27.3628C100.079 26.7847 100.215 26.2645 100.488 25.802C100.769 25.3395 101.144 24.972 101.615 24.6995C102.086 24.4187 102.61 24.2783 103.188 24.2783C103.775 24.2783 104.303 24.4146 104.774 24.6871C105.245 24.9596 105.616 25.3313 105.889 25.802C106.17 26.2645 106.31 26.7847 106.31 27.3628C106.31 27.9409 106.17 28.4653 105.889 28.936C105.616 29.4068 105.245 29.7825 104.774 30.0633C104.303 30.3358 103.775 30.4721 103.188 30.4721ZM103.188 29.159C103.527 29.159 103.824 29.0847 104.08 28.936C104.345 28.7791 104.547 28.5644 104.687 28.2919C104.836 28.0194 104.91 27.7097 104.91 27.3628C104.91 27.016 104.836 26.7104 104.687 26.4461C104.539 26.1819 104.336 25.9754 104.08 25.8268C103.824 25.6699 103.527 25.5914 103.188 25.5914C102.858 25.5914 102.561 25.6699 102.296 25.8268C102.04 25.9754 101.838 26.1819 101.689 26.4461C101.549 26.7104 101.479 27.016 101.479 27.3628C101.479 27.7097 101.549 28.0194 101.689 28.2919C101.838 28.5644 102.04 28.7791 102.296 28.936C102.561 29.0847 102.858 29.159 103.188 29.159Z" fill="white"/>
<path d="M96.3137 30.4723C95.6861 30.4723 95.1039 30.3608 94.5671 30.1378C94.0385 29.9066 93.5761 29.5886 93.1797 29.184C92.7833 28.7711 92.4777 28.2962 92.263 27.7594C92.0483 27.2143 91.9409 26.6321 91.9409 26.0128C91.9409 25.3934 92.0483 24.8153 92.263 24.2785C92.4777 23.7334 92.7833 23.2586 93.1797 22.8539C93.5761 22.4493 94.0385 22.1313 94.5671 21.9001C95.1039 21.6688 95.6861 21.5532 96.3137 21.5532C97.0157 21.5532 97.6227 21.6688 98.1347 21.9001C98.6467 22.1313 99.1009 22.4451 99.4973 22.8415L98.5311 23.8078C98.2751 23.527 97.9613 23.3081 97.5897 23.1512C97.2263 22.9943 96.801 22.9159 96.3137 22.9159C95.8843 22.9159 95.492 22.9902 95.1369 23.1388C94.7818 23.2875 94.4721 23.5022 94.2078 23.783C93.9518 24.0555 93.7536 24.3817 93.6132 24.7616C93.4728 25.1415 93.4027 25.5585 93.4027 26.0128C93.4027 26.467 93.4728 26.884 93.6132 27.2639C93.7536 27.6438 93.9518 27.9741 94.2078 28.2549C94.4721 28.5274 94.7818 28.738 95.1369 28.8867C95.492 29.0353 95.8843 29.1096 96.3137 29.1096C96.8423 29.1096 97.2882 29.0312 97.6516 28.8743C98.0232 28.7091 98.337 28.4861 98.593 28.2054L99.5593 29.1716C99.1629 29.5762 98.6963 29.8942 98.1595 30.1254C97.6227 30.3567 97.0074 30.4723 96.3137 30.4723Z" fill="white"/>
<path d="M83.0948 26.669V25.4921H85.2874C85.7251 25.4921 86.0637 25.3806 86.3032 25.1577C86.551 24.9264 86.6748 24.6085 86.6748 24.2038C86.6748 23.8405 86.5551 23.5349 86.3156 23.2871C86.0761 23.0394 85.7375 22.9155 85.2998 22.9155H83.0948V21.6768H85.3618C85.9068 21.6768 86.3858 21.7882 86.7987 22.0112C87.2116 22.2259 87.5296 22.5232 87.7526 22.9031C87.9838 23.2748 88.0994 23.7001 88.0994 24.179C88.0994 24.6828 87.9838 25.1205 87.7526 25.4921C87.5296 25.8638 87.2116 26.1528 86.7987 26.3593C86.3858 26.5657 85.9068 26.669 85.3618 26.669H83.0948ZM82.1162 30.3481V21.6768H83.5408V30.3481H82.1162ZM86.873 30.3481L83.8381 26.5822L85.1636 26.0991L88.6692 30.3481H86.873Z" fill="white"/>
<path d="M75.7164 27.0777V25.839H77.8842C78.1815 25.839 78.4417 25.7812 78.6647 25.6656C78.8959 25.5417 79.0776 25.3724 79.2097 25.1577C79.3418 24.9347 79.4079 24.6746 79.4079 24.3773C79.4079 24.0799 79.3418 23.8239 79.2097 23.6092C79.0776 23.3862 78.8959 23.2169 78.6647 23.1013C78.4417 22.9775 78.1815 22.9155 77.8842 22.9155H75.7164V21.6768H77.9586C78.5036 21.6768 78.9909 21.7882 79.4203 22.0112C79.858 22.2342 80.2007 22.548 80.4485 22.9527C80.7045 23.3573 80.8325 23.8322 80.8325 24.3773C80.8325 24.9223 80.7045 25.3972 80.4485 25.8018C80.2007 26.2065 79.858 26.5203 79.4203 26.7433C78.9909 26.9663 78.5036 27.0777 77.9586 27.0777H75.7164ZM74.7378 30.3481V21.6768H76.1624V30.3481H74.7378Z" fill="white"/>
<path d="M66.546 30.3481V29.0474H68.8253C69.4199 29.0474 69.9402 28.9194 70.3862 28.6634C70.8404 28.4073 71.1913 28.0522 71.4391 27.598C71.6951 27.1356 71.8231 26.6029 71.8231 26C71.8231 25.4054 71.6951 24.881 71.4391 24.4268C71.1831 23.9726 70.828 23.6175 70.3738 23.3615C69.9278 23.1055 69.4117 22.9775 68.8253 22.9775H66.546V21.6768H68.8625C69.4901 21.6768 70.0723 21.7882 70.6091 22.0112C71.1459 22.2259 71.6125 22.5315 72.0089 22.9279C72.4136 23.316 72.7274 23.7744 72.9504 24.3029C73.1734 24.8232 73.2848 25.393 73.2848 26.0124C73.2848 26.6235 73.1734 27.1934 72.9504 27.7219C72.7274 28.2504 72.4177 28.7129 72.0213 29.1093C71.6249 29.4975 71.1583 29.803 70.6215 30.026C70.0847 30.2407 69.5066 30.3481 68.8873 30.3481H66.546ZM65.5674 30.3481V21.6768H66.992V30.3481H65.5674Z" fill="white"/>
<path d="M59.912 30.4723C59.3174 30.4723 58.7558 30.3567 58.2273 30.1254C57.6988 29.8942 57.2363 29.5762 56.8399 29.1716C56.4435 28.7587 56.1297 28.2838 55.8984 27.747C55.6755 27.202 55.564 26.6197 55.564 26.0004C55.564 25.381 55.6755 24.8029 55.8984 24.2661C56.1297 23.7293 56.4435 23.2586 56.8399 22.8539C57.2445 22.441 57.7153 22.1231 58.2521 21.9001C58.7971 21.6688 59.3835 21.5532 60.0111 21.5532C60.6966 21.5532 61.3324 21.6854 61.9188 21.9496C62.5051 22.2139 62.9965 22.5897 63.3929 23.0769L62.4267 24.0431C62.1707 23.6798 61.828 23.4031 61.3985 23.2132C60.9691 23.015 60.5066 22.9159 60.0111 22.9159C59.4165 22.9159 58.8921 23.048 58.4379 23.3123C57.9919 23.5683 57.6451 23.9275 57.3973 24.39C57.1496 24.8524 57.0257 25.3892 57.0257 26.0004C57.0257 26.6115 57.1496 27.1524 57.3973 27.6231C57.6533 28.0856 57.9961 28.449 58.4255 28.7132C58.8549 28.9775 59.3422 29.1096 59.8872 29.1096C60.4653 29.1096 60.9608 29.0064 61.3737 28.8C61.7949 28.5852 62.117 28.2714 62.34 27.8585C62.5629 27.4373 62.6744 26.9212 62.6744 26.3101L63.5663 26.9542H59.8625V25.6535H64.1486V25.8517C64.1486 26.884 63.9627 27.7429 63.5911 28.4283C63.2277 29.1138 62.7281 29.6258 62.0922 29.9644C61.4563 30.303 60.7296 30.4723 59.912 30.4723Z" fill="white"/>
<circle cx="26.1492" cy="25.5306" r="18.5814" fill="#0F3499"/>
<mask id="mask0_3277_4746" style="mask-type:alpha" maskUnits="userSpaceOnUse" x="22" y="7" width="8" height="8">
<rect x="22.5352" y="7.46533" width="7.22609" height="7.22609" fill="#FCCF46"/>
</mask>
<g mask="url(#mask0_3277_4746)">
<path d="M26.1422 12.6664L24.8927 13.4191C24.8375 13.4542 24.7798 13.4693 24.7196 13.4643C24.6594 13.4593 24.6067 13.4392 24.5615 13.4041C24.5164 13.3689 24.4812 13.325 24.4561 13.2723C24.431 13.2196 24.426 13.1607 24.4411 13.0954L24.7723 11.6728L23.6658 10.7169C23.6156 10.6717 23.5842 10.6203 23.5717 10.5626C23.5591 10.5048 23.5629 10.4484 23.583 10.3932C23.6031 10.338 23.6332 10.2928 23.6733 10.2577C23.7135 10.2226 23.7687 10.2 23.8389 10.19L25.2992 10.062L25.8637 8.72216C25.8888 8.66194 25.9277 8.61678 25.9804 8.58667C26.0331 8.55656 26.087 8.5415 26.1422 8.5415C26.1974 8.5415 26.2514 8.55656 26.3041 8.58667C26.3567 8.61678 26.3956 8.66194 26.4207 8.72216L26.9853 10.062L28.4455 10.19C28.5158 10.2 28.571 10.2226 28.6111 10.2577C28.6513 10.2928 28.6814 10.338 28.7015 10.3932C28.7215 10.4484 28.7253 10.5048 28.7128 10.5626C28.7002 10.6203 28.6688 10.6717 28.6187 10.7169L27.5122 11.6728L27.8434 13.0954C27.8584 13.1607 27.8534 13.2196 27.8283 13.2723C27.8032 13.325 27.7681 13.3689 27.7229 13.4041C27.6778 13.4392 27.6251 13.4593 27.5649 13.4643C27.5046 13.4693 27.4469 13.4542 27.3917 13.4191L26.1422 12.6664Z" fill="#FCCF46"/>
</g>
<mask id="mask1_3277_4746" style="mask-type:alpha" maskUnits="userSpaceOnUse" x="22" y="35" width="8" height="9">
<rect x="22.5352" y="35.8535" width="7.22609" height="7.22609" fill="#FCCF46"/>
</mask>
<g mask="url(#mask1_3277_4746)">
<path d="M26.1422 41.0546L24.8927 41.8073C24.8375 41.8424 24.7798 41.8575 24.7196 41.8525C24.6594 41.8474 24.6067 41.8274 24.5615 41.7922C24.5164 41.7571 24.4812 41.7132 24.4561 41.6605C24.431 41.6078 24.426 41.5489 24.4411 41.4836L24.7723 40.061L23.6658 39.105C23.6156 39.0599 23.5842 39.0084 23.5717 38.9507C23.5591 38.893 23.5629 38.8366 23.583 38.7814C23.6031 38.7262 23.6332 38.681 23.6733 38.6459C23.7135 38.6108 23.7687 38.5882 23.8389 38.5781L25.2992 38.4502L25.8637 37.1103C25.8888 37.0501 25.9277 37.005 25.9804 36.9749C26.0331 36.9447 26.087 36.9297 26.1422 36.9297C26.1974 36.9297 26.2514 36.9447 26.3041 36.9749C26.3567 37.005 26.3956 37.0501 26.4207 37.1103L26.9853 38.4502L28.4455 38.5781C28.5158 38.5882 28.571 38.6108 28.6111 38.6459C28.6513 38.681 28.6814 38.7262 28.7015 38.7814C28.7215 38.8366 28.7253 38.893 28.7128 38.9507C28.7002 39.0084 28.6688 39.0599 28.6187 39.105L27.5122 40.061L27.8434 41.4836C27.8584 41.5489 27.8534 41.6078 27.8283 41.6605C27.8032 41.7132 27.7681 41.7571 27.7229 41.7922C27.6778 41.8274 27.6251 41.8474 27.5649 41.8525C27.5046 41.8575 27.4469 41.8424 27.3917 41.8073L26.1422 41.0546Z" fill="#FCCF46"/>
</g>
<mask id="mask2_3277_4746" style="mask-type:alpha" maskUnits="userSpaceOnUse" x="14" y="33" width="9" height="9">
<rect x="14.793" y="33.7891" width="7.22609" height="7.22609" fill="#FCCF46"/>
</mask>
<g mask="url(#mask2_3277_4746)">
<path d="M18.4 38.9901L17.1505 39.7428C17.0953 39.778 17.0376 39.793 16.9774 39.788C16.9172 39.783 16.8645 39.7629 16.8193 39.7278C16.7742 39.6927 16.739 39.6488 16.7139 39.5961C16.6889 39.5434 16.6838 39.4844 16.6989 39.4192L17.0301 37.9965L15.9236 37.0406C15.8734 36.9954 15.842 36.944 15.8295 36.8863C15.817 36.8286 15.8207 36.7721 15.8408 36.7169C15.8609 36.6617 15.891 36.6166 15.9311 36.5814C15.9713 36.5463 16.0265 36.5237 16.0967 36.5137L17.557 36.3857L18.1215 35.0459C18.1466 34.9857 18.1855 34.9405 18.2382 34.9104C18.2909 34.8803 18.3448 34.8652 18.4 34.8652C18.4552 34.8652 18.5092 34.8803 18.5619 34.9104C18.6146 34.9405 18.6534 34.9857 18.6785 35.0459L19.2431 36.3857L20.7033 36.5137C20.7736 36.5237 20.8288 36.5463 20.8689 36.5814C20.9091 36.6166 20.9392 36.6617 20.9593 36.7169C20.9793 36.7721 20.9831 36.8286 20.9706 36.8863C20.958 36.944 20.9267 36.9954 20.8765 37.0406L19.77 37.9965L20.1012 39.4192C20.1162 39.4844 20.1112 39.5434 20.0861 39.5961C20.061 39.6488 20.0259 39.6927 19.9807 39.7278C19.9356 39.7629 19.8829 39.783 19.8227 39.788C19.7625 39.793 19.7047 39.778 19.6495 39.7428L18.4 38.9901Z" fill="#FCCF46"/>
</g>
<mask id="mask3_3277_4746" style="mask-type:alpha" maskUnits="userSpaceOnUse" x="9" y="28" width="8" height="8">
<rect x="9.63379" y="28.1113" width="7.22609" height="7.22609" fill="#FCCF46"/>
</mask>
<g mask="url(#mask3_3277_4746)">
<path d="M13.2409 33.3124L11.9913 34.0651C11.9361 34.1002 11.8784 34.1153 11.8182 34.1103C11.758 34.1053 11.7053 34.0852 11.6601 34.0501C11.615 34.0149 11.5799 33.971 11.5548 33.9183C11.5297 33.8656 11.5247 33.8067 11.5397 33.7414L11.8709 32.3188L10.7644 31.3629C10.7142 31.3177 10.6829 31.2663 10.6703 31.2085C10.6578 31.1508 10.6615 31.0944 10.6816 31.0392C10.7017 30.984 10.7318 30.9388 10.7719 30.9037C10.8121 30.8686 10.8673 30.846 10.9375 30.836L12.3978 30.708L12.9623 29.3682C12.9874 29.3079 13.0263 29.2628 13.079 29.2327C13.1317 29.2026 13.1857 29.1875 13.2409 29.1875C13.2961 29.1875 13.35 29.2026 13.4027 29.2327C13.4554 29.2628 13.4943 29.3079 13.5194 29.3682L14.0839 30.708L15.5442 30.836C15.6144 30.846 15.6696 30.8686 15.7098 30.9037C15.7499 30.9388 15.78 30.984 15.8001 31.0392C15.8202 31.0944 15.8239 31.1508 15.8114 31.2085C15.7988 31.2663 15.7675 31.3177 15.7173 31.3629L14.6108 32.3188L14.942 33.7414C14.957 33.8067 14.952 33.8656 14.9269 33.9183C14.9019 33.971 14.8667 34.0149 14.8216 34.0501C14.7764 34.0852 14.7237 34.1053 14.6635 34.1103C14.6033 34.1153 14.5456 34.1002 14.4904 34.0651L13.2409 33.3124Z" fill="#FCCF46"/>
</g>
<mask id="mask4_3277_4746" style="mask-type:alpha" maskUnits="userSpaceOnUse" x="8" y="21" width="8" height="8">
<rect x="8.08203" y="21.4014" width="7.22609" height="7.22609" fill="#FCCF46"/>
</mask>
<g mask="url(#mask4_3277_4746)">
<path d="M11.6891 26.6024L10.4396 27.3551C10.3844 27.3903 10.3267 27.4053 10.2665 27.4003C10.2062 27.3953 10.1536 27.3752 10.1084 27.3401C10.0632 27.305 10.0281 27.2611 10.003 27.2084C9.97792 27.1557 9.9729 27.0967 9.98795 27.0315L10.3192 25.6088L9.21266 24.6529C9.16247 24.6077 9.13111 24.5563 9.11857 24.4986C9.10602 24.4409 9.10978 24.3844 9.12986 24.3292C9.14993 24.274 9.18004 24.2289 9.22018 24.1937C9.26033 24.1586 9.31553 24.136 9.38578 24.126L10.8461 23.998L11.4106 22.6582C11.4357 22.598 11.4746 22.5528 11.5273 22.5227C11.58 22.4926 11.6339 22.4775 11.6891 22.4775C11.7443 22.4775 11.7982 22.4926 11.8509 22.5227C11.9036 22.5528 11.9425 22.598 11.9676 22.6582L12.5321 23.998L13.9924 24.126C14.0627 24.136 14.1179 24.1586 14.158 24.1937C14.1982 24.2289 14.2283 24.274 14.2483 24.3292C14.2684 24.3844 14.2722 24.4409 14.2596 24.4986C14.2471 24.5563 14.2157 24.6077 14.1655 24.6529L13.059 25.6088L13.3902 27.0315C13.4053 27.0967 13.4003 27.1557 13.3752 27.2084C13.3501 27.2611 13.315 27.305 13.2698 27.3401C13.2246 27.3752 13.1719 27.3953 13.1117 27.4003C13.0515 27.4053 12.9938 27.3903 12.9386 27.3551L11.6891 26.6024Z" fill="#FCCF46"/>
</g>
<mask id="mask5_3277_4746" style="mask-type:alpha" maskUnits="userSpaceOnUse" x="10" y="14" width="8" height="8">
<rect x="10.1509" y="14.6914" width="7.22609" height="7.22609" fill="#FCCF46"/>
</mask>
<g mask="url(#mask5_3277_4746)">
<path d="M13.7579 19.8925L12.5084 20.6452C12.4532 20.6803 12.3955 20.6954 12.3353 20.6903C12.2751 20.6853 12.2224 20.6653 12.1772 20.6301C12.1321 20.595 12.0969 20.5511 12.0719 20.4984C12.0468 20.4457 12.0417 20.3868 12.0568 20.3215L12.388 18.8989L11.2815 17.9429C11.2313 17.8978 11.2 17.8463 11.1874 17.7886C11.1749 17.7309 11.1786 17.6745 11.1987 17.6193C11.2188 17.5641 11.2489 17.5189 11.289 17.4838C11.3292 17.4486 11.3844 17.4261 11.4546 17.416L12.9149 17.2881L13.4794 15.9482C13.5045 15.888 13.5434 15.8428 13.5961 15.8127C13.6488 15.7826 13.7027 15.7676 13.7579 15.7676C13.8131 15.7676 13.8671 15.7826 13.9198 15.8127C13.9725 15.8428 14.0114 15.888 14.0364 15.9482L14.601 17.2881L16.0613 17.416C16.1315 17.4261 16.1867 17.4486 16.2269 17.4838C16.267 17.5189 16.2971 17.5641 16.3172 17.6193C16.3373 17.6745 16.341 17.7309 16.3285 17.7886C16.3159 17.8463 16.2846 17.8978 16.2344 17.9429L15.1279 18.8989L15.4591 20.3215C15.4741 20.3868 15.4691 20.4457 15.444 20.4984C15.4189 20.5511 15.3838 20.595 15.3387 20.6301C15.2935 20.6653 15.2408 20.6853 15.1806 20.6903C15.1204 20.6954 15.0627 20.6803 15.0075 20.6452L13.7579 19.8925Z" fill="#FCCF46"/>
</g>
<mask id="mask6_3277_4746" style="mask-type:alpha" maskUnits="userSpaceOnUse" x="15" y="9" width="8" height="8">
<rect x="15.3096" y="9.52979" width="7.22609" height="7.22609" fill="#FCCF46"/>
</mask>
<g mask="url(#mask6_3277_4746)">
<path d="M18.9166 14.7308L17.6671 15.4836C17.6119 15.5187 17.5542 15.5337 17.494 15.5287C17.4338 15.5237 17.3811 15.5036 17.3359 15.4685C17.2908 15.4334 17.2556 15.3895 17.2305 15.3368C17.2055 15.2841 17.2004 15.2251 17.2155 15.1599L17.5467 13.7373L16.4402 12.7813C16.39 12.7361 16.3587 12.6847 16.3461 12.627C16.3336 12.5693 16.3373 12.5128 16.3574 12.4576C16.3775 12.4024 16.4076 12.3573 16.4477 12.3222C16.4879 12.287 16.5431 12.2644 16.6133 12.2544L18.0736 12.1264L18.6381 10.7866C18.6632 10.7264 18.7021 10.6812 18.7548 10.6511C18.8075 10.621 18.8614 10.606 18.9166 10.606C18.9718 10.606 19.0258 10.621 19.0785 10.6511C19.1312 10.6812 19.17 10.7264 19.1951 10.7866L19.7597 12.1264L21.22 12.2544C21.2902 12.2644 21.3454 12.287 21.3855 12.3222C21.4257 12.3573 21.4558 12.4024 21.4759 12.4576C21.4959 12.5128 21.4997 12.5693 21.4872 12.627C21.4746 12.6847 21.4433 12.7361 21.3931 12.7813L20.2866 13.7373L20.6178 15.1599C20.6328 15.2251 20.6278 15.2841 20.6027 15.3368C20.5776 15.3895 20.5425 15.4334 20.4973 15.4685C20.4522 15.5036 20.3995 15.5237 20.3393 15.5287C20.2791 15.5337 20.2213 15.5187 20.1661 15.4836L18.9166 14.7308Z" fill="#FCCF46"/>
</g>
<mask id="mask7_3277_4746" style="mask-type:alpha" maskUnits="userSpaceOnUse" x="29" y="9" width="8" height="8">
<rect x="29.7646" y="9.52979" width="7.22609" height="7.22609" fill="#FCCF46"/>
</mask>
<g mask="url(#mask7_3277_4746)">
<path d="M33.3717 14.7308L32.1222 15.4836C32.067 15.5187 32.0093 15.5337 31.9491 15.5287C31.8889 15.5237 31.8362 15.5036 31.791 15.4685C31.7458 15.4334 31.7107 15.3895 31.6856 15.3368C31.6605 15.2841 31.6555 15.2251 31.6706 15.1599L32.0018 13.7373L30.8953 12.7813C30.8451 12.7361 30.8137 12.6847 30.8012 12.627C30.7886 12.5693 30.7924 12.5128 30.8125 12.4576C30.8325 12.4024 30.8627 12.3573 30.9028 12.3222C30.9429 12.287 30.9981 12.2644 31.0684 12.2544L32.5287 12.1264L33.0932 10.7866C33.1183 10.7264 33.1572 10.6812 33.2099 10.6511C33.2626 10.621 33.3165 10.606 33.3717 10.606C33.4269 10.606 33.4809 10.621 33.5335 10.6511C33.5862 10.6812 33.6251 10.7264 33.6502 10.7866L34.2148 12.1264L35.675 12.2544C35.7453 12.2644 35.8005 12.287 35.8406 12.3222C35.8808 12.3573 35.9109 12.4024 35.931 12.4576C35.951 12.5128 35.9548 12.5693 35.9422 12.627C35.9297 12.6847 35.8983 12.7361 35.8482 12.7813L34.7417 13.7373L35.0729 15.1599C35.0879 15.2251 35.0829 15.2841 35.0578 15.3368C35.0327 15.3895 34.9976 15.4334 34.9524 15.4685C34.9073 15.5036 34.8546 15.5237 34.7943 15.5287C34.7341 15.5337 34.6764 15.5187 34.6212 15.4836L33.3717 14.7308Z" fill="#FCCF46"/>
</g>
<mask id="mask8_3277_4746" style="mask-type:alpha" maskUnits="userSpaceOnUse" x="34" y="14" width="8" height="8">
<rect x="34.4072" y="14.6914" width="7.22609" height="7.22609" fill="#FCCF46"/>
</mask>
<g mask="url(#mask8_3277_4746)">
<path d="M38.0143 19.8925L36.7648 20.6452C36.7096 20.6803 36.6519 20.6954 36.5917 20.6903C36.5314 20.6853 36.4787 20.6653 36.4336 20.6301C36.3884 20.595 36.3533 20.5511 36.3282 20.4984C36.3031 20.4457 36.2981 20.3868 36.3131 20.3215L36.6443 18.8989L35.5379 17.9429C35.4877 17.8978 35.4563 17.8463 35.4438 17.7886C35.4312 17.7309 35.435 17.6745 35.4551 17.6193C35.4751 17.5641 35.5052 17.5189 35.5454 17.4838C35.5855 17.4486 35.6407 17.4261 35.711 17.416L37.1712 17.2881L37.7358 15.9482C37.7609 15.888 37.7998 15.8428 37.8525 15.8127C37.9051 15.7826 37.9591 15.7676 38.0143 15.7676C38.0695 15.7676 38.1234 15.7826 38.1761 15.8127C38.2288 15.8428 38.2677 15.888 38.2928 15.9482L38.8573 17.2881L40.3176 17.416C40.3879 17.4261 40.4431 17.4486 40.4832 17.4838C40.5233 17.5189 40.5535 17.5641 40.5735 17.6193C40.5936 17.6745 40.5974 17.7309 40.5848 17.7886C40.5723 17.8463 40.5409 17.8978 40.4907 17.9429L39.3842 18.8989L39.7154 20.3215C39.7305 20.3868 39.7255 20.4457 39.7004 20.4984C39.6753 20.5511 39.6402 20.595 39.595 20.6301C39.5498 20.6653 39.4971 20.6853 39.4369 20.6903C39.3767 20.6954 39.319 20.6803 39.2638 20.6452L38.0143 19.8925Z" fill="#FCCF46"/>
</g>
<mask id="mask9_3277_4746" style="mask-type:alpha" maskUnits="userSpaceOnUse" x="36" y="21" width="8" height="9">
<rect x="36.4736" y="21.9175" width="7.22609" height="7.22609" fill="#FCCF46"/>
</mask>
<g mask="url(#mask9_3277_4746)">
<path d="M40.0807 27.1185L38.8312 27.8713C38.776 27.9064 38.7183 27.9214 38.6581 27.9164C38.5978 27.9114 38.5452 27.8913 38.5 27.8562C38.4548 27.8211 38.4197 27.7772 38.3946 27.7245C38.3695 27.6718 38.3645 27.6128 38.3796 27.5476L38.7108 26.125L37.6043 25.169C37.5541 25.1238 37.5227 25.0724 37.5102 25.0147C37.4976 24.957 37.5014 24.9005 37.5215 24.8453C37.5415 24.7901 37.5716 24.745 37.6118 24.7098C37.6519 24.6747 37.7071 24.6521 37.7774 24.6421L39.2377 24.5141L39.8022 23.1743C39.8273 23.1141 39.8662 23.0689 39.9189 23.0388C39.9716 23.0087 40.0255 22.9937 40.0807 22.9937C40.1359 22.9937 40.1898 23.0087 40.2425 23.0388C40.2952 23.0689 40.3341 23.1141 40.3592 23.1743L40.9237 24.5141L42.384 24.6421C42.4543 24.6521 42.5095 24.6747 42.5496 24.7098C42.5898 24.745 42.6199 24.7901 42.6399 24.8453C42.66 24.9005 42.6638 24.957 42.6512 25.0147C42.6387 25.0724 42.6073 25.1238 42.5571 25.169L41.4506 26.125L41.7818 27.5476C41.7969 27.6128 41.7919 27.6718 41.7668 27.7245C41.7417 27.7772 41.7066 27.8211 41.6614 27.8562C41.6162 27.8913 41.5636 27.9114 41.5033 27.9164C41.4431 27.9214 41.3854 27.9064 41.3302 27.8713L40.0807 27.1185Z" fill="#FCCF46"/>
</g>
<mask id="mask10_3277_4746" style="mask-type:alpha" maskUnits="userSpaceOnUse" x="34" y="28" width="9" height="8">
<rect x="34.9258" y="28.6274" width="7.22609" height="7.22609" fill="#FCCF46"/>
</mask>
<g mask="url(#mask10_3277_4746)">
<path d="M38.5328 33.8285L37.2833 34.5812C37.2281 34.6163 37.1704 34.6314 37.1102 34.6264C37.05 34.6214 36.9973 34.6013 36.9521 34.5662C36.907 34.531 36.8718 34.4871 36.8468 34.4344C36.8217 34.3818 36.8167 34.3228 36.8317 34.2576L37.1629 32.8349L36.0564 31.879C36.0062 31.8338 35.9749 31.7824 35.9623 31.7247C35.9498 31.667 35.9535 31.6105 35.9736 31.5553C35.9937 31.5001 36.0238 31.4549 36.0639 31.4198C36.1041 31.3847 36.1593 31.3621 36.2295 31.3521L37.6898 31.2241L38.2543 29.8843C38.2794 29.824 38.3183 29.7789 38.371 29.7488C38.4237 29.7187 38.4776 29.7036 38.5328 29.7036C38.588 29.7036 38.642 29.7187 38.6947 29.7488C38.7474 29.7789 38.7863 29.824 38.8114 29.8843L39.3759 31.2241L40.8362 31.3521C40.9064 31.3621 40.9616 31.3847 41.0018 31.4198C41.0419 31.4549 41.072 31.5001 41.0921 31.5553C41.1122 31.6105 41.1159 31.667 41.1034 31.7247C41.0908 31.7824 41.0595 31.8338 41.0093 31.879L39.9028 32.8349L40.234 34.2576C40.249 34.3228 40.244 34.3818 40.2189 34.4344C40.1938 34.4871 40.1587 34.531 40.1136 34.5662C40.0684 34.6013 40.0157 34.6214 39.9555 34.6264C39.8953 34.6314 39.8376 34.6163 39.7824 34.5812L38.5328 33.8285Z" fill="#FCCF46"/>
</g>
<mask id="mask11_3277_4746" style="mask-type:alpha" maskUnits="userSpaceOnUse" x="29" y="34" width="8" height="8">
<rect x="29.7646" y="34.3052" width="7.22609" height="7.22609" fill="#FCCF46"/>
</mask>
<g mask="url(#mask11_3277_4746)">
<path d="M33.3717 39.5062L32.1222 40.259C32.067 40.2941 32.0093 40.3091 31.9491 40.3041C31.8889 40.2991 31.8362 40.279 31.791 40.2439C31.7458 40.2088 31.7107 40.1649 31.6856 40.1122C31.6605 40.0595 31.6555 40.0005 31.6706 39.9353L32.0018 38.5127L30.8953 37.5567C30.8451 37.5115 30.8137 37.4601 30.8012 37.4024C30.7886 37.3447 30.7924 37.2882 30.8125 37.233C30.8325 37.1778 30.8627 37.1327 30.9028 37.0975C30.9429 37.0624 30.9981 37.0398 31.0684 37.0298L32.5287 36.9018L33.0932 35.562C33.1183 35.5018 33.1572 35.4566 33.2099 35.4265C33.2626 35.3964 33.3165 35.3813 33.3717 35.3813C33.4269 35.3813 33.4809 35.3964 33.5335 35.4265C33.5862 35.4566 33.6251 35.5018 33.6502 35.562L34.2148 36.9018L35.675 37.0298C35.7453 37.0398 35.8005 37.0624 35.8406 37.0975C35.8808 37.1327 35.9109 37.1778 35.931 37.233C35.951 37.2882 35.9548 37.3447 35.9422 37.4024C35.9297 37.4601 35.8983 37.5115 35.8482 37.5567L34.7417 38.5127L35.0729 39.9353C35.0879 40.0005 35.0829 40.0595 35.0578 40.1122C35.0327 40.1649 34.9976 40.2088 34.9524 40.2439C34.9073 40.279 34.8546 40.2991 34.7943 40.3041C34.7341 40.3091 34.6764 40.2941 34.6212 40.259L33.3717 39.5062Z" fill="#FCCF46"/>
</g>
<path d="M28.7536 23.2315C28.8877 23.2342 29.0227 23.2277 29.1533 23.2671C29.5078 23.3743 29.7584 23.7136 29.761 24.0974C29.7636 24.4753 29.7616 24.8533 29.7616 25.2313C29.7616 26.7456 29.7621 28.2597 29.7612 29.774C29.7609 30.2184 29.4856 30.5698 29.0634 30.6708C29.0149 30.6824 28.9658 30.6942 28.9151 30.691C28.8042 30.6867 28.6932 30.6801 28.5822 30.6791C28.5144 30.6786 28.4465 30.6913 28.3789 30.69C28.1859 30.6866 27.993 30.6988 27.7998 30.6802C27.6829 30.669 27.5641 30.6866 27.4465 30.6885C27.1741 30.6928 26.9013 30.6895 26.6286 30.6824C26.4786 30.6786 26.3265 30.6892 26.1754 30.6902C25.8446 30.6924 25.5137 30.6823 25.1831 30.6802C24.2387 30.6745 23.2943 30.6769 22.3499 30.6802C22.2552 30.6805 22.1614 30.6887 22.066 30.6809C21.9958 30.6751 21.9216 30.6614 21.8518 30.692C21.3934 30.6823 21.0126 30.3064 20.9917 29.839C20.9855 29.7009 20.9885 29.5623 20.9885 29.4241C20.9884 27.6557 20.9883 25.8873 20.9885 24.119C20.9885 23.6993 21.2582 23.3457 21.642 23.2552C21.7613 23.2271 21.8821 23.2371 22.0023 23.2303C22.0111 23.2308 22.0198 23.2314 22.0287 23.2319H23.1772C23.1772 23.1985 23.1772 23.1734 23.1772 23.1485C23.1772 22.9345 23.1772 22.7204 23.1779 22.5064C23.1779 22.482 23.1697 22.4553 23.1888 22.4336C23.1877 22.6993 23.1799 22.9651 23.1926 23.2307C23.2097 23.2591 23.2376 23.2476 23.2608 23.2476C24.6714 23.2481 26.0821 23.2481 27.4927 23.2476C27.516 23.2476 27.5436 23.2585 27.5617 23.2315L27.5604 23.2321C27.5663 23.2331 27.5722 23.2339 27.5781 23.2348C27.9699 23.2339 28.3618 23.2328 28.7538 23.2318L28.7536 23.2315ZM24.9912 27.1062C24.8945 27.617 24.8009 28.119 24.703 28.6202C24.6897 28.6881 24.7097 28.6977 24.7692 28.6974C25.1743 28.6959 25.5796 28.6962 25.9847 28.6989C26.0485 28.6994 26.0619 28.6808 26.0497 28.6181C25.9574 28.1391 25.8687 27.6593 25.7766 27.1803C25.767 27.1306 25.7722 27.104 25.8221 27.0786C26.1842 26.8936 26.3832 26.4922 26.3211 26.0816C26.2584 25.6677 25.9662 25.3611 25.5535 25.2764C25.179 25.1997 24.7746 25.3823 24.568 25.7216C24.3548 26.0715 24.3794 26.5072 24.6292 26.8287C24.7256 26.953 24.8494 27.0403 24.9911 27.1062H24.9912Z" fill="white"/>
<path d="M23.6133 22.5404C23.5958 22.5656 23.6033 22.5963 23.6033 22.6244C23.6025 22.8717 23.6027 23.1191 23.6027 23.3664C23.6027 23.3952 23.6027 23.4241 23.6027 23.4628C23.247 23.4628 22.8968 23.4628 22.5467 23.4628C22.5471 23.1668 22.5474 22.8706 22.5474 22.5746C22.5474 22.5516 22.5527 22.5263 22.5361 22.5076C22.5423 22.1833 22.5898 21.8673 22.6638 21.5587C22.861 20.7352 23.2289 20.0626 23.7765 19.5533C24.2652 19.0989 24.8159 18.8686 25.4178 18.8286C25.917 18.7954 26.4064 18.8633 26.8678 19.1186C27.8594 19.667 28.446 20.6362 28.6666 21.9739C28.7395 22.4152 28.7297 22.8637 28.7289 23.3109C28.7289 23.3616 28.7295 23.4121 28.7299 23.4626C28.3696 23.4637 28.0092 23.465 27.6489 23.4661C27.6474 23.4591 27.6461 23.4521 27.6445 23.445C27.6438 23.2134 27.6428 22.9818 27.6424 22.7502C27.6419 22.5258 27.6265 22.3035 27.5837 22.0855C27.4319 21.3109 27.0852 20.735 26.5082 20.4027C26.1473 20.1948 25.7652 20.1406 25.3732 20.1905C24.8932 20.2515 24.4782 20.4893 24.147 20.942C23.8179 21.3919 23.6518 21.9322 23.6132 22.5404H23.6133Z" fill="white"/>
</svg>
